<svg version="1.1" xmlns="http://www.w3.org/2000/svg" viewBox="0 0 1320.1736907958984 1905.0323964670301" width="2640.347381591797" height="3810.0647929340603">
  <!-- svg-source:excalidraw -->
  
  <defs>
    <style class="style-fonts">
      @font-face {
        font-family: "Virgil";
        src: url("https://excalidraw.com/Virgil.woff2");
      }
      @font-face {
        font-family: "Cascadia";
        src: url("https://excalidraw.com/Cascadia.woff2");
      }
      @font-face {
        font-family: "Assistant";
        src: url("https://excalidraw.com/Assistant-Regular.woff2");
      }
    </style>
    
  </defs>
  <rect x="0" y="0" width="1320.1736907958984" height="1905.0323964670301" fill="#ffffff"></rect><g stroke-linecap="round" transform="translate(10 213.93669334203003) rotate(0 106.541015625 108.865234375)"><path d="M32 0 C89.27 -1.57, 144.85 1, 181.08 0 M32 0 C79.96 -2.03, 126.68 -1.13, 181.08 0 M181.08 0 C202.13 1.6, 214.26 12.65, 213.08 32 M181.08 0 C202.3 0.17, 215.36 12.92, 213.08 32 M213.08 32 C210.35 70.78, 213.2 108.81, 213.08 185.73 M213.08 32 C213.92 65.4, 213.52 99.18, 213.08 185.73 M213.08 185.73 C211.29 205.34, 201.64 217.82, 181.08 217.73 M213.08 185.73 C214.89 206.26, 202.16 218.84, 181.08 217.73 M181.08 217.73 C136.24 216.42, 88.78 214.3, 32 217.73 M181.08 217.73 C135.41 219.11, 91.19 218.36, 32 217.73 M32 217.73 C12.32 216.98, 0.14 206.99, 0 185.73 M32 217.73 C12.9 215.74, 1.65 204.81, 0 185.73 M0 185.73 C0.44 130.61, -0.3 76.91, 0 32 M0 185.73 C1.29 139.27, 0.14 92.4, 0 32 M0 32 C-1.45 9.87, 10.99 1.13, 32 0 M0 32 C1.25 9.3, 11.26 0.35, 32 0" stroke="#000000" stroke-width="1" fill="none"></path></g><g transform="translate(71.37104797363281 285.30192771703) rotate(0 45.16996765136719 37.5)"><text x="45.16996765136719" y="17.52" font-family="Virgil, Segoe UI Emoji" font-size="20px" fill="#000000" text-anchor="middle" style="white-space: pre;" direction="ltr" dominant-baseline="alphabetic">Language</text><text x="45.16996765136719" y="42.519999999999996" font-family="Virgil, Segoe UI Emoji" font-size="20px" fill="#000000" text-anchor="middle" style="white-space: pre;" direction="ltr" dominant-baseline="alphabetic">Def file</text><text x="45.16996765136719" y="67.52" font-family="Virgil, Segoe UI Emoji" font-size="20px" fill="#000000" text-anchor="middle" style="white-space: pre;" direction="ltr" dominant-baseline="alphabetic">"toml"</text></g><g stroke-linecap="round"><g transform="translate(231.48046875 320.42106834203) rotate(0 74.607421875 1.40234375)"><path d="M0.86 1.06 C25.69 1.76, 123.93 2.82, 148.82 3.05 M-0.15 0.56 C24.51 0.99, 122.65 0.55, 147.66 1.06" stroke="#000000" stroke-width="1" fill="none"></path></g><g transform="translate(231.48046875 320.42106834203) rotate(0 74.607421875 1.40234375)"><path d="M124.12 9.46 C132.67 6.23, 138.04 6.11, 147.66 1.06 M124.12 9.46 C129.93 7.56, 136.75 4.88, 147.66 1.06" stroke="#000000" stroke-width="1" fill="none"></path></g><g transform="translate(231.48046875 320.42106834203) rotate(0 74.607421875 1.40234375)"><path d="M124.23 -7.65 C132.58 -5.99, 137.92 -1.24, 147.66 1.06 M124.23 -7.65 C129.99 -4.89, 136.78 -2.91, 147.66 1.06" stroke="#000000" stroke-width="1" fill="none"></path></g></g><mask></mask><g stroke-linecap="round" transform="translate(378.5625 211.35466209203003) rotate(0 102.748046875 112.287109375)"><path d="M32 0 C68.03 0.11, 105.6 -0.23, 173.5 0 M32 0 C70.98 -0.37, 108.99 -1.13, 173.5 0 M173.5 0 C193.68 1.48, 205.65 9.59, 205.5 32 M173.5 0 C195.1 -0.07, 204.93 10.56, 205.5 32 M205.5 32 C204.11 73.5, 205.52 114.4, 205.5 192.57 M205.5 32 C203.09 94.54, 204.6 157.79, 205.5 192.57 M205.5 192.57 C204.77 215.67, 194.23 222.81, 173.5 224.57 M205.5 192.57 C206.5 212.17, 196.42 224.56, 173.5 224.57 M173.5 224.57 C141.41 226.6, 106.07 223.94, 32 224.57 M173.5 224.57 C135.96 225, 97.89 224.95, 32 224.57 M32 224.57 C9.39 225.24, 0.24 215.61, 0 192.57 M32 224.57 C8.85 223.52, -0.01 214.65, 0 192.57 M0 192.57 C-0.93 153.08, -0.55 112.02, 0 32 M0 192.57 C-0.36 155.42, 0.14 116.27, 0 32 M0 32 C1.74 11.17, 12.44 1.44, 32 0 M0 32 C-0.22 8.82, 9.92 2.09, 32 0" stroke="#000000" stroke-width="1" fill="none"></path></g><g transform="translate(419.86060333251953 286.14177146703) rotate(0 61.44994354248047 37.5)"><text x="61.44994354248047" y="17.52" font-family="Virgil, Segoe UI Emoji" font-size="20px" fill="#000000" text-anchor="middle" style="white-space: pre;" direction="ltr" dominant-baseline="alphabetic">Shuffle</text><text x="61.44994354248047" y="42.519999999999996" font-family="Virgil, Segoe UI Emoji" font-size="20px" fill="#000000" text-anchor="middle" style="white-space: pre;" direction="ltr" dominant-baseline="alphabetic">Fisher Yates</text><text x="61.44994354248047" y="67.52" font-family="Virgil, Segoe UI Emoji" font-size="20px" fill="#000000" text-anchor="middle" style="white-space: pre;" direction="ltr" dominant-baseline="alphabetic">Algorithm</text></g><g stroke-linecap="round" transform="translate(740.1640625 218.77653709203003) rotate(0 91.294921875 114.18359375)"><path d="M32 0 C71.81 1.81, 116.26 0.66, 150.59 0 M32 0 C77.38 0.75, 122.24 1.16, 150.59 0 M150.59 0 C173.72 0.81, 182.17 10.08, 182.59 32 M150.59 0 C170.73 -1.06, 181.7 11.55, 182.59 32 M182.59 32 C182.53 79.72, 182.99 126.43, 182.59 196.37 M182.59 32 C180.95 93.27, 182.36 154.12, 182.59 196.37 M182.59 196.37 C180.81 217.09, 170.19 226.66, 150.59 228.37 M182.59 196.37 C180.76 217.32, 169.96 226.94, 150.59 228.37 M150.59 228.37 C124.78 225.7, 97.93 226.87, 32 228.37 M150.59 228.37 C109.27 230.29, 66.95 230.28, 32 228.37 M32 228.37 C9.41 226.99, -0.32 216.36, 0 196.37 M32 228.37 C11.05 226.46, 1.1 216.47, 0 196.37 M0 196.37 C1.2 154.31, -0.01 110.14, 0 32 M0 196.37 C1.39 135.71, 0.11 73.46, 0 32 M0 32 C-0.95 11.79, 12.23 -1.28, 32 0 M0 32 C-0.83 8.53, 12.16 -1.82, 32 0" stroke="#000000" stroke-width="1" fill="none"></path></g><g transform="translate(778.3790283203125 320.46013084203) rotate(0 53.0799560546875 12.5)"><text x="53.0799560546875" y="17.52" font-family="Virgil, Segoe UI Emoji" font-size="20px" fill="#000000" text-anchor="middle" style="white-space: pre;" direction="ltr" dominant-baseline="alphabetic">JavaScript</text></g><g stroke-linecap="round"><g transform="translate(648.3515625 11.116380842030026) rotate(0 5.994140625 337.509765625)"><path d="M-0.43 -1.12 C1.54 111.36, 10.79 561.37, 12.77 674.07 M1.54 0.91 C3.34 113.57, 10.76 562.52, 12.23 675.11" stroke="#000000" stroke-width="1" fill="none"></path></g></g><mask></mask><g transform="translate(765.98046875 169.42106834203003) rotate(0 61.089935302734375 12.5)"><text x="0" y="17.52" font-family="Virgil, Segoe UI Emoji" font-size="20px" fill="#000000" text-anchor="start" style="white-space: pre;" direction="ltr" dominant-baseline="alphabetic">Interpreters</text></g><g stroke-linecap="round" transform="translate(751.2578125 490.90934959203) rotate(0 84.95703125 101.501953125)"><path d="M32 0 C66.28 -1.45, 95.83 -2.55, 137.91 0 M32 0 C74.72 1.18, 116.72 -0.08, 137.91 0 M137.91 0 C159.65 -0.28, 168.03 8.98, 169.91 32 M137.91 0 C160.25 -0.8, 171.32 12.67, 169.91 32 M169.91 32 C170.6 67.77, 170.2 103.17, 169.91 171 M169.91 32 C170.48 72.36, 170.78 114.78, 169.91 171 M169.91 171 C169.98 193.73, 159.46 201.21, 137.91 203 M169.91 171 C170.68 191.4, 157.04 205.2, 137.91 203 M137.91 203 C99.67 204.7, 62.06 203.53, 32 203 M137.91 203 C102.78 203.19, 69.77 201.57, 32 203 M32 203 C8.89 201.19, -1.97 192.16, 0 171 M32 203 C10.4 205.22, 0.52 192.73, 0 171 M0 171 C0.04 115.98, 2.01 61.51, 0 32 M0 171 C1.55 139.93, 2.07 107.94, 0 32 M0 32 C-0.23 10.3, 10.92 -1.43, 32 0 M0 32 C1.62 8.39, 11.65 -0.18, 32 0" stroke="#000000" stroke-width="1" fill="none"></path></g><g transform="translate(804.114875793457 579.91130271703) rotate(0 32.09996795654297 12.5)"><text x="32.09996795654297" y="17.52" font-family="Virgil, Segoe UI Emoji" font-size="20px" fill="#000000" text-anchor="middle" style="white-space: pre;" direction="ltr" dominant-baseline="alphabetic">Python</text></g><g stroke-linecap="round"><g transform="translate(928.40625 333.69841209203) rotate(0 47.9453125 0.05859375)"><path d="M-0.09 1.07 C16.11 0.92, 80.1 -0.02, 96.05 -0.38 M-1.6 0.59 C14.57 0.56, 79.13 1.05, 95.18 0.9" stroke="#000000" stroke-width="1" fill="none"></path></g><g transform="translate(928.40625 333.69841209203) rotate(0 47.9453125 0.05859375)"><path d="M71.69 9.45 C78.16 8.01, 80.26 5.57, 95.18 0.9 M71.69 9.45 C75.76 7.85, 80.74 6.07, 95.18 0.9" stroke="#000000" stroke-width="1" fill="none"></path></g><g transform="translate(928.40625 333.69841209203) rotate(0 47.9453125 0.05859375)"><path d="M71.69 -7.66 C78.23 -5.66, 80.34 -4.67, 95.18 0.9 M71.69 -7.66 C75.74 -5.78, 80.72 -4.1, 95.18 0.9" stroke="#000000" stroke-width="1" fill="none"></path></g></g><mask></mask><g stroke-linecap="round"><g transform="translate(928.2954582706604 600.4451728343962) rotate(0 47.9453125 0.05859375)"><path d="M1.19 -0.62 C17.01 -0.4, 80.09 0.79, 95.7 0.92 M0.35 1.66 C15.93 1.59, 78.5 -0.75, 94.65 -0.79" stroke="#000000" stroke-width="1" fill="none"></path></g><g transform="translate(928.2954582706604 600.4451728343962) rotate(0 47.9453125 0.05859375)"><path d="M71.35 8.27 C78.83 4.42, 89.69 -0.26, 94.65 -0.79 M71.35 8.27 C77.53 4.95, 85.93 2.62, 94.65 -0.79" stroke="#000000" stroke-width="1" fill="none"></path></g><g transform="translate(928.2954582706604 600.4451728343962) rotate(0 47.9453125 0.05859375)"><path d="M70.98 -8.83 C78.53 -6.45, 89.53 -4.91, 94.65 -0.79 M70.98 -8.83 C77.19 -7.01, 85.7 -4.21, 94.65 -0.79" stroke="#000000" stroke-width="1" fill="none"></path></g></g><mask></mask><g transform="translate(949.09375 365.12809959203) rotate(0 34.84996032714844 12.5)"><text x="0" y="17.52" font-family="Virgil, Segoe UI Emoji" font-size="20px" fill="#000000" text-anchor="start" style="white-space: pre;" direction="ltr" dominant-baseline="alphabetic">Output</text></g><g transform="translate(952.4742584228516 635.19841209203) rotate(0 34.84996032714844 12.5)"><text x="0" y="17.52" font-family="Virgil, Segoe UI Emoji" font-size="20px" fill="#000000" text-anchor="start" style="white-space: pre;" direction="ltr" dominant-baseline="alphabetic">Output</text></g><g stroke-linecap="round" transform="translate(697.751953125 1070.8861562326551) rotate(0 106.541015625 108.865234375)"><path d="M32 0 C73.33 1.46, 117.61 2.94, 181.08 0 M32 0 C83.83 2.13, 136.24 1.48, 181.08 0 M181.08 0 C203.31 0, 213.55 10.84, 213.08 32 M181.08 0 C200.87 0.74, 214.37 9.56, 213.08 32 M213.08 32 C213.1 67.76, 213.63 105.57, 213.08 185.73 M213.08 32 C212.66 65.4, 212.43 98.62, 213.08 185.73 M213.08 185.73 C211.95 206.9, 202.6 216, 181.08 217.73 M213.08 185.73 C214.46 206.9, 203.57 216.75, 181.08 217.73 M181.08 217.73 C125.82 215, 72.64 218.13, 32 217.73 M181.08 217.73 C149.33 217.21, 114.95 216.65, 32 217.73 M32 217.73 C10.84 217.97, 1.55 207.5, 0 185.73 M32 217.73 C11.24 217.68, -0.76 207.64, 0 185.73 M0 185.73 C0.68 136.67, 0.16 87.95, 0 32 M0 185.73 C-0.28 127.34, 0.76 68.31, 0 32 M0 32 C0.01 9.46, 11.69 -1.65, 32 0 M0 32 C1.78 10.05, 11.69 1.43, 32 0" stroke="#000000" stroke-width="1" fill="none"></path></g><g transform="translate(718.3430480957031 1167.2513906076551) rotate(0 85.94992065429688 12.5)"><text x="85.94992065429688" y="17.52" font-family="Virgil, Segoe UI Emoji" font-size="20px" fill="#000000" text-anchor="middle" style="white-space: pre;" direction="ltr" dominant-baseline="alphabetic">Deposit Contract</text></g><g stroke-linecap="round" transform="translate(163.5625 1055.1173574045301) rotate(0 119.361328125 115.130859375)"><path d="M32 0 C75.05 1.25, 112.91 0.58, 206.72 0 M32 0 C94.57 0.69, 159.6 0.37, 206.72 0 M206.72 0 C229.26 0.86, 238.75 11.9, 238.72 32 M206.72 0 C230.16 0.75, 240.16 11.11, 238.72 32 M238.72 32 C236.72 72.05, 236.16 117.19, 238.72 198.26 M238.72 32 C237.43 80.37, 237.53 128.45, 238.72 198.26 M238.72 198.26 C238.13 220.02, 229.46 228.43, 206.72 230.26 M238.72 198.26 C238.08 220.4, 230.19 232.52, 206.72 230.26 M206.72 230.26 C150.29 232.01, 94.21 231.33, 32 230.26 M206.72 230.26 C144.28 231.71, 82.31 229.81, 32 230.26 M32 230.26 C12.08 230.37, -1.45 220.28, 0 198.26 M32 230.26 C11.07 228.37, -1.58 221.86, 0 198.26 M0 198.26 C0.04 131.72, 0.7 69.99, 0 32 M0 198.26 C-0.7 139.44, 0.22 78.89, 0 32 M0 32 C-0.04 10.46, 10.4 0.53, 32 0 M0 32 C-0.44 12.93, 11.38 -2.17, 32 0" stroke="#000000" stroke-width="1" fill="none"></path></g><g transform="translate(248.9638442993164 1157.7482167795301) rotate(0 33.959983825683594 12.5)"><text x="33.959983825683594" y="17.52" font-family="Virgil, Segoe UI Emoji" font-size="20px" fill="#000000" text-anchor="middle" style="white-space: pre;" direction="ltr" dominant-baseline="alphabetic">ERC20</text></g><g stroke-linecap="round"><g transform="translate(695.734375 1179.9025136545301) rotate(0 -145.720703125 -1.435546875)"><path d="M-0.47 0.56 C-49.05 0.17, -242.5 -1.9, -290.92 -2.59 M1.48 -0.19 C-47.25 -0.94, -242.76 -4.16, -291.6 -4.57" stroke="#000000" stroke-width="1" fill="none"></path></g><g transform="translate(695.734375 1179.9025136545301) rotate(0 -145.720703125 -1.435546875)"><path d="M-268 -12.81 C-275.2 -9.21, -283.79 -6.55, -291.6 -4.57 M-268 -12.81 C-273.5 -11.1, -278.89 -7.81, -291.6 -4.57" stroke="#000000" stroke-width="1" fill="none"></path></g><g transform="translate(695.734375 1179.9025136545301) rotate(0 -145.720703125 -1.435546875)"><path d="M-268.22 4.29 C-275.31 2.01, -283.83 -1.22, -291.6 -4.57 M-268.22 4.29 C-273.63 1.85, -278.96 1, -291.6 -4.57" stroke="#000000" stroke-width="1" fill="none"></path></g></g><mask></mask><g transform="translate(509.5 1137.1368886545301) rotate(0 65.64994049072266 12.5)"><text x="0" y="17.52" font-family="Virgil, Segoe UI Emoji" font-size="20px" fill="#000000" text-anchor="start" style="white-space: pre;" direction="ltr" dominant-baseline="alphabetic">TransferFrom</text></g><g stroke-linecap="round" transform="translate(701.5859375 1675.4230214670301) rotate(0 108.171875 109.8046875)"><path d="M32 0 C83.68 -1.33, 135.31 -1.68, 184.34 0 M32 0 C69.83 -1, 106.14 0.05, 184.34 0 M184.34 0 C205.16 -0.23, 215.56 10.5, 216.34 32 M184.34 0 C203.96 0.33, 215.71 11.03, 216.34 32 M216.34 32 C217.46 67.96, 217.93 102, 216.34 187.61 M216.34 32 C214.51 79.08, 214.48 128.22, 216.34 187.61 M216.34 187.61 C215.85 207.87, 204.9 218.99, 184.34 219.61 M216.34 187.61 C216.16 207.93, 206.41 219.38, 184.34 219.61 M184.34 219.61 C151.71 218.96, 121.06 217.59, 32 219.61 M184.34 219.61 C131.51 218.42, 79.51 220.01, 32 219.61 M32 219.61 C12 220.36, 1.69 208.11, 0 187.61 M32 219.61 C11.09 219.16, 0.04 208.85, 0 187.61 M0 187.61 C1.14 146.98, -0.15 103.21, 0 32 M0 187.61 C-0.66 133.61, -0.54 81.08, 0 32 M0 32 C-1.42 12.21, 11.28 1.78, 32 0 M0 32 C-0.95 12.78, 9.06 1.76, 32 0" stroke="#000000" stroke-width="1" fill="none"></path></g><g transform="translate(723.8078918457031 1772.7277089670301) rotate(0 85.94992065429688 12.5)"><text x="85.94992065429688" y="17.52" font-family="Virgil, Segoe UI Emoji" font-size="20px" fill="#000000" text-anchor="middle" style="white-space: pre;" direction="ltr" dominant-baseline="alphabetic">Deposit Contract</text></g><g stroke-linecap="round" transform="translate(693.49609375 1474.3400136545301) rotate(0 302.349609375 53.98046875)"><path d="M26.99 0 C152.61 0.97, 279.3 2.49, 577.71 0 M26.99 0 C216.11 0.21, 405.32 -0.05, 577.71 0 M577.71 0 C596.81 1.28, 603.41 10.2, 604.7 26.99 M577.71 0 C594.78 0.02, 604.99 7.63, 604.7 26.99 M604.7 26.99 C605.58 42.18, 603.48 53.59, 604.7 80.97 M604.7 26.99 C604.82 45.34, 605.38 65.03, 604.7 80.97 M604.7 80.97 C604.22 100.02, 596.04 108.7, 577.71 107.96 M604.7 80.97 C604.61 99.18, 595.84 107.91, 577.71 107.96 M577.71 107.96 C384.96 108.53, 190.44 109.24, 26.99 107.96 M577.71 107.96 C459.75 109.68, 341.85 109.54, 26.99 107.96 M26.99 107.96 C10.52 109.89, -0.94 98.57, 0 80.97 M26.99 107.96 C9.35 108.82, 1.75 97.95, 0 80.97 M0 80.97 C0.22 64.9, -1.54 48.15, 0 26.99 M0 80.97 C-0.18 62.31, -0.53 43.26, 0 26.99 M0 26.99 C1.02 9.39, 9.15 1.58, 26.99 0 M0 26.99 C1.99 9, 7.48 0.44, 26.99 0" stroke="#000000" stroke-width="1" fill="none"></path></g><g transform="translate(931.9557571411133 1515.8204824045301) rotate(0 63.88994598388672 12.5)"><text x="63.88994598388672" y="17.52" font-family="Virgil, Segoe UI Emoji" font-size="20px" fill="#000000" text-anchor="middle" style="white-space: pre;" direction="ltr" dominant-baseline="alphabetic">Web2 Service</text></g><g stroke-linecap="round"><g transform="translate(808.2734375 1672.7540761545301) rotate(0 -1.052734375 -44.681640625)"><path d="M0.52 -0.03 C0.49 -14.93, -1.04 -73.61, -1.37 -88.56 M-0.67 -1.09 C-0.69 -16.41, -1.73 -75.68, -1.94 -90.26" stroke="#000000" stroke-width="1" fill="none"></path></g><g transform="translate(808.2734375 1672.7540761545301) rotate(0 -1.052734375 -44.681640625)"><path d="M6.98 -66.91 C4.98 -70.32, 4.59 -75.14, -1.94 -90.26 M6.98 -66.91 C4.08 -73.53, 2.94 -80.17, -1.94 -90.26" stroke="#000000" stroke-width="1" fill="none"></path></g><g transform="translate(808.2734375 1672.7540761545301) rotate(0 -1.052734375 -44.681640625)"><path d="M-10.11 -66.64 C-8.7 -70.18, -5.67 -75.05, -1.94 -90.26 M-10.11 -66.64 C-8.42 -73.44, -4.97 -80.15, -1.94 -90.26" stroke="#000000" stroke-width="1" fill="none"></path></g></g><mask></mask><g transform="translate(639.65625 1618.3634511545301) rotate(0 69.76993560791016 12.5)"><text x="139.5398712158203" y="17.52" font-family="Virgil, Segoe UI Emoji" font-size="20px" fill="#000000" text-anchor="end" style="white-space: pre;" direction="ltr" dominant-baseline="alphabetic">Deposit Event</text></g><g stroke-linecap="round" transform="translate(1101.68359375 1681.0040761545301) rotate(0 90.783203125 103.05859375)"><path d="M32 0 C70.81 -0.76, 107.72 -2.35, 149.57 0 M32 0 C65.37 -0.47, 97.38 -0.88, 149.57 0 M149.57 0 C172.09 1.84, 181.33 11.72, 181.57 32 M149.57 0 C169.14 1.35, 181.37 12.64, 181.57 32 M181.57 32 C180.94 71.35, 181.44 106.06, 181.57 174.12 M181.57 32 C183.43 68.9, 182.03 105.82, 181.57 174.12 M181.57 174.12 C180.51 196.86, 170.48 206.4, 149.57 206.12 M181.57 174.12 C181.39 196.69, 169.66 204.14, 149.57 206.12 M149.57 206.12 C115.08 205.26, 80.73 205.97, 32 206.12 M149.57 206.12 C108.74 205.16, 65.98 205.71, 32 206.12 M32 206.12 C11.37 204.34, 0.12 196.49, 0 174.12 M32 206.12 C12.07 206.26, -2.19 193.9, 0 174.12 M0 174.12 C0.34 135.43, -1.06 100.06, 0 32 M0 174.12 C0.1 137.83, -0.51 99.05, 0 32 M0 32 C-1.88 11.46, 11.56 -1.37, 32 0 M0 32 C-1.49 10.23, 9.29 1.65, 32 0" stroke="#000000" stroke-width="1" fill="none"></path></g><g stroke-linecap="round"><g transform="translate(1190.30859375 1586.4142324045301) rotate(0 1.16015625 44.28125)"><path d="M-0.15 0.3 C0.08 15.17, 2.09 73.55, 2.48 88.28 M-1.69 -0.58 C-1.7 14.54, 1.11 74.57, 1.62 89.67" stroke="#000000" stroke-width="1" fill="none"></path></g><g transform="translate(1190.30859375 1586.4142324045301) rotate(0 1.16015625 44.28125)"><path d="M-7.87 66.54 C-3.81 75.91, -1.06 84.54, 1.62 89.67 M-7.87 66.54 C-5.53 73.33, -2.33 79.97, 1.62 89.67" stroke="#000000" stroke-width="1" fill="none"></path></g><g transform="translate(1190.30859375 1586.4142324045301) rotate(0 1.16015625 44.28125)"><path d="M9.21 65.85 C6.55 75.47, 2.59 84.37, 1.62 89.67 M9.21 65.85 C6.28 72.88, 4.2 79.73, 1.62 89.67" stroke="#000000" stroke-width="1" fill="none"></path></g></g><mask></mask><g transform="translate(1223.09375 1632.3165761545301) rotate(0 43.53997039794922 12.5)"><text x="0" y="17.52" font-family="Virgil, Segoe UI Emoji" font-size="20px" fill="#000000" text-anchor="start" style="white-space: pre;" direction="ltr" dominant-baseline="alphabetic">Mint Call</text></g></svg>