<svg version="1.1" xmlns="http://www.w3.org/2000/svg" viewBox="0 0 1034.45422629565 703.91325584203" width="2068.9084525913" height="1407.82651168406">
  <!-- svg-source:excalidraw -->
  
  <defs>
    <style class="style-fonts">
      @font-face {
        font-family: "Virgil";
        src: url("https://excalidraw.com/Virgil.woff2");
      }
      @font-face {
        font-family: "Cascadia";
        src: url("https://excalidraw.com/Cascadia.woff2");
      }
      @font-face {
        font-family: "Assistant";
        src: url("https://excalidraw.com/Assistant-Regular.woff2");
      }
    </style>
    
  </defs>
  <rect x="0" y="0" width="1034.45422629565" height="703.91325584203" fill="#ffffff"></rect><g stroke-linecap="round" transform="translate(10 213.93669334203003) rotate(0 106.541015625 108.865234375)"><path d="M32 0 C89.27 -1.57, 144.85 1, 181.08 0 M32 0 C79.96 -2.03, 126.68 -1.13, 181.08 0 M181.08 0 C202.13 1.6, 214.26 12.65, 213.08 32 M181.08 0 C202.3 0.17, 215.36 12.92, 213.08 32 M213.08 32 C210.35 70.78, 213.2 108.81, 213.08 185.73 M213.08 32 C213.92 65.4, 213.52 99.18, 213.08 185.73 M213.08 185.73 C211.29 205.34, 201.64 217.82, 181.08 217.73 M213.08 185.73 C214.89 206.26, 202.16 218.84, 181.08 217.73 M181.08 217.73 C136.24 216.42, 88.78 214.3, 32 217.73 M181.08 217.73 C135.41 219.11, 91.19 218.36, 32 217.73 M32 217.73 C12.32 216.98, 0.14 206.99, 0 185.73 M32 217.73 C12.9 215.74, 1.65 204.81, 0 185.73 M0 185.73 C0.44 130.61, -0.3 76.91, 0 32 M0 185.73 C1.29 139.27, 0.14 92.4, 0 32 M0 32 C-1.45 9.87, 10.99 1.13, 32 0 M0 32 C1.25 9.3, 11.26 0.35, 32 0" stroke="#000000" stroke-width="1" fill="none"></path></g><g transform="translate(71.37104797363281 285.30192771703) rotate(0 45.16996765136719 37.5)"><text x="45.16996765136719" y="17.52" font-family="Virgil, Segoe UI Emoji" font-size="20px" fill="#000000" text-anchor="middle" style="white-space: pre;" direction="ltr" dominant-baseline="alphabetic">Language</text><text x="45.16996765136719" y="42.519999999999996" font-family="Virgil, Segoe UI Emoji" font-size="20px" fill="#000000" text-anchor="middle" style="white-space: pre;" direction="ltr" dominant-baseline="alphabetic">Def file</text><text x="45.16996765136719" y="67.52" font-family="Virgil, Segoe UI Emoji" font-size="20px" fill="#000000" text-anchor="middle" style="white-space: pre;" direction="ltr" dominant-baseline="alphabetic">"toml"</text></g><g stroke-linecap="round"><g transform="translate(231.48046875 320.42106834203) rotate(0 74.607421875 1.40234375)"><path d="M0.86 1.06 C25.69 1.76, 123.93 2.82, 148.82 3.05 M-0.15 0.56 C24.51 0.99, 122.65 0.55, 147.66 1.06" stroke="#000000" stroke-width="1" fill="none"></path></g><g transform="translate(231.48046875 320.42106834203) rotate(0 74.607421875 1.40234375)"><path d="M124.12 9.46 C132.67 6.23, 138.04 6.11, 147.66 1.06 M124.12 9.46 C129.93 7.56, 136.75 4.88, 147.66 1.06" stroke="#000000" stroke-width="1" fill="none"></path></g><g transform="translate(231.48046875 320.42106834203) rotate(0 74.607421875 1.40234375)"><path d="M124.23 -7.65 C132.58 -5.99, 137.92 -1.24, 147.66 1.06 M124.23 -7.65 C129.99 -4.89, 136.78 -2.91, 147.66 1.06" stroke="#000000" stroke-width="1" fill="none"></path></g></g><mask></mask><g stroke-linecap="round" transform="translate(378.5625 211.35466209203003) rotate(0 102.748046875 112.287109375)"><path d="M32 0 C68.03 0.11, 105.6 -0.23, 173.5 0 M32 0 C70.98 -0.37, 108.99 -1.13, 173.5 0 M173.5 0 C193.68 1.48, 205.65 9.59, 205.5 32 M173.5 0 C195.1 -0.07, 204.93 10.56, 205.5 32 M205.5 32 C204.11 73.5, 205.52 114.4, 205.5 192.57 M205.5 32 C203.09 94.54, 204.6 157.79, 205.5 192.57 M205.5 192.57 C204.77 215.67, 194.23 222.81, 173.5 224.57 M205.5 192.57 C206.5 212.17, 196.42 224.56, 173.5 224.57 M173.5 224.57 C141.41 226.6, 106.07 223.94, 32 224.57 M173.5 224.57 C135.96 225, 97.89 224.95, 32 224.57 M32 224.57 C9.39 225.24, 0.24 215.61, 0 192.57 M32 224.57 C8.85 223.52, -0.01 214.65, 0 192.57 M0 192.57 C-0.93 153.08, -0.55 112.02, 0 32 M0 192.57 C-0.36 155.42, 0.14 116.27, 0 32 M0 32 C1.74 11.17, 12.44 1.44, 32 0 M0 32 C-0.22 8.82, 9.92 2.09, 32 0" stroke="#000000" stroke-width="1" fill="none"></path></g><g transform="translate(419.86060333251953 286.14177146703) rotate(0 61.44994354248047 37.5)"><text x="61.44994354248047" y="17.52" font-family="Virgil, Segoe UI Emoji" font-size="20px" fill="#000000" text-anchor="middle" style="white-space: pre;" direction="ltr" dominant-baseline="alphabetic">Shuffle</text><text x="61.44994354248047" y="42.519999999999996" font-family="Virgil, Segoe UI Emoji" font-size="20px" fill="#000000" text-anchor="middle" style="white-space: pre;" direction="ltr" dominant-baseline="alphabetic">Fisher Yates</text><text x="61.44994354248047" y="67.52" font-family="Virgil, Segoe UI Emoji" font-size="20px" fill="#000000" text-anchor="middle" style="white-space: pre;" direction="ltr" dominant-baseline="alphabetic">Algorithm</text></g><g stroke-linecap="round" transform="translate(740.1640625 218.77653709203003) rotate(0 91.294921875 114.18359375)"><path d="M32 0 C71.81 1.81, 116.26 0.66, 150.59 0 M32 0 C77.38 0.75, 122.24 1.16, 150.59 0 M150.59 0 C173.72 0.81, 182.17 10.08, 182.59 32 M150.59 0 C170.73 -1.06, 181.7 11.55, 182.59 32 M182.59 32 C182.53 79.72, 182.99 126.43, 182.59 196.37 M182.59 32 C180.95 93.27, 182.36 154.12, 182.59 196.37 M182.59 196.37 C180.81 217.09, 170.19 226.66, 150.59 228.37 M182.59 196.37 C180.76 217.32, 169.96 226.94, 150.59 228.37 M150.59 228.37 C124.78 225.7, 97.93 226.87, 32 228.37 M150.59 228.37 C109.27 230.29, 66.95 230.28, 32 228.37 M32 228.37 C9.41 226.99, -0.32 216.36, 0 196.37 M32 228.37 C11.05 226.46, 1.1 216.47, 0 196.37 M0 196.37 C1.2 154.31, -0.01 110.14, 0 32 M0 196.37 C1.39 135.71, 0.11 73.46, 0 32 M0 32 C-0.95 11.79, 12.23 -1.28, 32 0 M0 32 C-0.83 8.53, 12.16 -1.82, 32 0" stroke="#000000" stroke-width="1" fill="none"></path></g><g transform="translate(778.3790283203125 320.46013084203) rotate(0 53.0799560546875 12.5)"><text x="53.0799560546875" y="17.52" font-family="Virgil, Segoe UI Emoji" font-size="20px" fill="#000000" text-anchor="middle" style="white-space: pre;" direction="ltr" dominant-baseline="alphabetic">JavaScript</text></g><g stroke-linecap="round"><g transform="translate(648.3515625 11.116380842030026) rotate(0 5.994140625 337.509765625)"><path d="M-0.43 -1.12 C1.54 111.36, 10.79 561.37, 12.77 674.07 M1.54 0.91 C3.34 113.57, 10.76 562.52, 12.23 675.11" stroke="#000000" stroke-width="1" fill="none"></path></g></g><mask></mask><g transform="translate(765.98046875 169.42106834203003) rotate(0 61.089935302734375 12.5)"><text x="0" y="17.52" font-family="Virgil, Segoe UI Emoji" font-size="20px" fill="#000000" text-anchor="start" style="white-space: pre;" direction="ltr" dominant-baseline="alphabetic">Interpreters</text></g><g stroke-linecap="round" transform="translate(751.2578125 490.90934959203) rotate(0 84.95703125 101.501953125)"><path d="M32 0 C66.28 -1.45, 95.83 -2.55, 137.91 0 M32 0 C74.72 1.18, 116.72 -0.08, 137.91 0 M137.91 0 C159.65 -0.28, 168.03 8.98, 169.91 32 M137.91 0 C160.25 -0.8, 171.32 12.67, 169.91 32 M169.91 32 C170.6 67.77, 170.2 103.17, 169.91 171 M169.91 32 C170.48 72.36, 170.78 114.78, 169.91 171 M169.91 171 C169.98 193.73, 159.46 201.21, 137.91 203 M169.91 171 C170.68 191.4, 157.04 205.2, 137.91 203 M137.91 203 C99.67 204.7, 62.06 203.53, 32 203 M137.91 203 C102.78 203.19, 69.77 201.57, 32 203 M32 203 C8.89 201.19, -1.97 192.16, 0 171 M32 203 C10.4 205.22, 0.52 192.73, 0 171 M0 171 C0.04 115.98, 2.01 61.51, 0 32 M0 171 C1.55 139.93, 2.07 107.94, 0 32 M0 32 C-0.23 10.3, 10.92 -1.43, 32 0 M0 32 C1.62 8.39, 11.65 -0.18, 32 0" stroke="#000000" stroke-width="1" fill="none"></path></g><g transform="translate(804.114875793457 579.91130271703) rotate(0 32.09996795654297 12.5)"><text x="32.09996795654297" y="17.52" font-family="Virgil, Segoe UI Emoji" font-size="20px" fill="#000000" text-anchor="middle" style="white-space: pre;" direction="ltr" dominant-baseline="alphabetic">Python</text></g><g stroke-linecap="round"><g transform="translate(928.40625 333.69841209203) rotate(0 47.9453125 0.05859375)"><path d="M-0.09 1.07 C16.11 0.92, 80.1 -0.02, 96.05 -0.38 M-1.6 0.59 C14.57 0.56, 79.13 1.05, 95.18 0.9" stroke="#000000" stroke-width="1" fill="none"></path></g><g transform="translate(928.40625 333.69841209203) rotate(0 47.9453125 0.05859375)"><path d="M71.69 9.45 C78.16 8.01, 80.26 5.57, 95.18 0.9 M71.69 9.45 C75.76 7.85, 80.74 6.07, 95.18 0.9" stroke="#000000" stroke-width="1" fill="none"></path></g><g transform="translate(928.40625 333.69841209203) rotate(0 47.9453125 0.05859375)"><path d="M71.69 -7.66 C78.23 -5.66, 80.34 -4.67, 95.18 0.9 M71.69 -7.66 C75.74 -5.78, 80.72 -4.1, 95.18 0.9" stroke="#000000" stroke-width="1" fill="none"></path></g></g><mask></mask><g stroke-linecap="round"><g transform="translate(928.2954582706604 600.4451728343962) rotate(0 47.9453125 0.05859375)"><path d="M1.19 -0.62 C17.01 -0.4, 80.09 0.79, 95.7 0.92 M0.35 1.66 C15.93 1.59, 78.5 -0.75, 94.65 -0.79" stroke="#000000" stroke-width="1" fill="none"></path></g><g transform="translate(928.2954582706604 600.4451728343962) rotate(0 47.9453125 0.05859375)"><path d="M71.35 8.27 C78.83 4.42, 89.69 -0.26, 94.65 -0.79 M71.35 8.27 C77.53 4.95, 85.93 2.62, 94.65 -0.79" stroke="#000000" stroke-width="1" fill="none"></path></g><g transform="translate(928.2954582706604 600.4451728343962) rotate(0 47.9453125 0.05859375)"><path d="M70.98 -8.83 C78.53 -6.45, 89.53 -4.91, 94.65 -0.79 M70.98 -8.83 C77.19 -7.01, 85.7 -4.21, 94.65 -0.79" stroke="#000000" stroke-width="1" fill="none"></path></g></g><mask></mask><g transform="translate(949.09375 365.12809959203) rotate(0 34.84996032714844 12.5)"><text x="0" y="17.52" font-family="Virgil, Segoe UI Emoji" font-size="20px" fill="#000000" text-anchor="start" style="white-space: pre;" direction="ltr" dominant-baseline="alphabetic">Output</text></g><g transform="translate(952.4742584228516 635.19841209203) rotate(0 34.84996032714844 12.5)"><text x="0" y="17.52" font-family="Virgil, Segoe UI Emoji" font-size="20px" fill="#000000" text-anchor="start" style="white-space: pre;" direction="ltr" dominant-baseline="alphabetic">Output</text></g></svg>